<?xml version="1.0" standalone="no"?>
<!DOCTYPE svg PUBLIC "-//W3C//DTD SVG 20010904//EN"
 "http://www.w3.org/TR/2001/REC-SVG-20010904/DTD/svg10.dtd">
<svg version="1.0" xmlns="http://www.w3.org/2000/svg"
 width="29.000000pt" height="34.000000pt" viewBox="0 0 29.000000 34.000000"
 preserveAspectRatio="xMidYMid meet">

<g transform="translate(0.000000,34.000000) scale(0.100000,-0.100000)"
fill="#000000" stroke="none">
<path d="M46 264 c-27 -26 -18 -64 17 -77 29 -11 57 10 57 41 0 49 -42 69 -74
36z m57 -16 c15 -23 1 -48 -28 -48 -14 0 -25 2 -25 4 0 2 -3 11 -6 19 -6 16
23 50 39 44 6 -2 15 -10 20 -19z"/>
<path d="M176 238 c-14 -25 -26 -48 -26 -51 0 -4 25 -7 55 -7 l55 0 -19 38
c-37 68 -36 68 -65 20z m44 -7 c15 -28 13 -31 -20 -31 -28 0 -29 1 -18 25 13
30 24 32 38 6z"/>
<path d="M30 120 l0 -50 45 0 45 0 0 50 0 50 -45 0 -45 0 0 -50z m80 0 c0 -39
-1 -40 -35 -40 -33 0 -35 2 -35 33 0 41 5 47 42 47 26 0 28 -3 28 -40z"/>
<path d="M181 157 c-6 -8 -9 -21 -5 -30 3 -8 1 -18 -5 -22 -6 -3 -11 -13 -11
-21 0 -10 13 -14 46 -14 40 0 45 2 39 18 -4 9 -10 30 -14 47 -8 33 -31 44 -50
22z m37 -19 c-6 -18 -28 -21 -28 -4 0 9 7 16 16 16 9 0 14 -5 12 -12z m-4 -34
c25 -9 19 -24 -9 -24 -24 0 -32 10 -18 23 8 8 8 8 27 1z"/>
</g>
</svg>
